HIERARCHY
ROOT hips
{
	OFFSET -0.003675 0.299928 -0.021708
	CHANNELS 6 Xposition Yposition Zposition Xrotation Yrotation Zrotation
	JOINT LowerBack
	{
		OFFSET 0.000919 0.177588 0.009275
		CHANNELS 3 Xrotation Yrotation Zrotation
		JOINT spine
		{
			OFFSET 0.000919 0.177588 0.009275
			CHANNELS 3 Xrotation Yrotation Zrotation
			JOINT chest
			{
				OFFSET 0.000456 0.100015 0.004638
				CHANNELS 3 Xrotation Yrotation Zrotation
				JOINT neck
				{
					OFFSET 0.000456 0.100015 0.004638
					CHANNELS 3 Xrotation Yrotation Zrotation
					JOINT head
					{
						OFFSET 0.000924 0.155147 0.009274
						CHANNELS 6 Xposition Yposition Zposition Xrotation Yrotation Zrotation
						End Site
						{
							OFFSET 0.000000 0.153400 0.000000
						}
					}
				}
				JOINT shoulder.L
				{
					OFFSET 0.019937 0.078966 0.057518
					CHANNELS 6 Xposition Yposition Zposition Yrotation Xrotation Zrotation
					JOINT upper_arm.L
					{
						OFFSET 0.177024 -0.020465 -0.095062
						CHANNELS 6 Xposition Yposition Zposition Xrotation Yrotation Zrotation
						JOINT forearm.L
						{
							OFFSET 0.247100 -0.135500 -0.061800
							CHANNELS 3 Xrotation Yrotation Zrotation
							JOINT hand.L
							{
								OFFSET 0.217000 -0.143000 0.039300
								CHANNELS 3 Xrotation Yrotation Zrotation
								JOINT palm.01.L
								{
									OFFSET 0.021770 -0.038291 0.012954
									CHANNELS 6 Xposition Yposition Zposition Yrotation Xrotation Zrotation
									JOINT f_index.01.L
									{
										OFFSET 0.053215 -0.044137 0.008236
										CHANNELS 3 Xrotation Yrotation Zrotation
										JOINT f_index.02.L
										{
											OFFSET 0.036108 -0.024723 -0.010656
											CHANNELS 3 Xrotation Yrotation Zrotation
											JOINT f_index.03.L
											{
												OFFSET 0.021342 -0.014948 -0.010846
												CHANNELS 3 Xrotation Yrotation Zrotation
												End Site
												{
													OFFSET 0.015600 -0.009860 -0.013421
												}
											}
										}
									}
									JOINT thumb.01.L
									{
										OFFSET -0.009090 -0.002348 -0.024223
										CHANNELS 6 Xposition Yposition Zposition Xrotation Yrotation Zrotation
										JOINT thumb.02.L
										{
											OFFSET 0.019713 -0.035076 -0.011120
											CHANNELS 3 Xrotation Yrotation Zrotation
											JOINT thumb.03.L
											{
												OFFSET 0.024877 -0.021748 -0.005176
												CHANNELS 3 Xrotation Yrotation Zrotation
												End Site
												{
													OFFSET 0.016125 -0.013029 -0.001569
												}
											}
										}
									}
								}
								JOINT palm.02.L
								{
									OFFSET 0.032823 -0.025104 0.012281
									CHANNELS 6 Xposition Yposition Zposition Yrotation Xrotation Zrotation
									JOINT f_middle.01.L
									{
										OFFSET 0.055723 -0.038469 0.008037
										CHANNELS 3 Xrotation Yrotation Zrotation
										JOINT f_middle.02.L
										{
											OFFSET 0.038167 -0.027473 -0.015582
											CHANNELS 3 Xrotation Yrotation Zrotation
											JOINT f_middle.03.L
											{
												OFFSET 0.021707 -0.016587 -0.017037
												CHANNELS 3 Xrotation Yrotation Zrotation
												End Site
												{
													OFFSET 0.014112 -0.010584 -0.014294
												}
											}
										}
									}
								}
								JOINT palm.03.L
								{
									OFFSET 0.039230 -0.011402 0.008390
									CHANNELS 6 Xposition Yposition Zposition Yrotation Xrotation Zrotation
									JOINT f_ring.01.L
									{
										OFFSET 0.061796 -0.031470 0.007910
										CHANNELS 3 Xrotation Yrotation Zrotation
										JOINT f_ring.02.L
										{
											OFFSET 0.033092 -0.023401 -0.019127
											CHANNELS 3 Xrotation Yrotation Zrotation
											JOINT f_ring.03.L
											{
												OFFSET 0.021392 -0.015362 -0.017824
												CHANNELS 3 Xrotation Yrotation Zrotation
												End Site
												{
													OFFSET 0.008670 -0.007297 -0.014686
												}
											}
										}
									}
								}
								JOINT palm.04.L
								{
									OFFSET 0.043417 0.002450 0.002889
									CHANNELS 6 Xposition Yposition Zposition Yrotation Xrotation Zrotation
									JOINT f_pinky.01.L
									{
										OFFSET 0.069986 -0.026156 0.003627
										CHANNELS 3 Xrotation Yrotation Zrotation
										JOINT f_pinky.02.L
										{
											OFFSET 0.018520 -0.012813 -0.016429
											CHANNELS 3 Xrotation Yrotation Zrotation
											JOINT f_pinky.03.L
											{
												OFFSET 0.013822 -0.009796 -0.014947
												CHANNELS 3 Xrotation Yrotation Zrotation
												End Site
												{
													OFFSET 0.007238 -0.006103 -0.011657
												}
											}
										}
									}
								}
							}
						}
					}
				}
				JOINT shoulder.R
				{
					OFFSET -0.016662 0.078957 0.057696
					CHANNELS 6 Xposition Yposition Zposition Yrotation Xrotation Zrotation
					JOINT upper_arm.R
					{
						OFFSET -0.176972 -0.020537 -0.095144
						CHANNELS 6 Xposition Yposition Zposition Xrotation Yrotation Zrotation
						JOINT forearm.R
						{
							OFFSET -0.247100 -0.135500 -0.061800
							CHANNELS 3 Xrotation Yrotation Zrotation
							JOINT hand.R
							{
								OFFSET -0.217000 -0.143000 0.039300
								CHANNELS 3 Xrotation Yrotation Zrotation
								JOINT palm.01.R
								{
									OFFSET -0.021773 -0.038278 0.012988
									CHANNELS 6 Xposition Yposition Zposition Yrotation Xrotation Zrotation
									JOINT f_index.01.R
									{
										OFFSET -0.053212 -0.044139 0.008249
										CHANNELS 3 Xrotation Yrotation Zrotation
										JOINT f_index.02.R
										{
											OFFSET -0.036049 -0.024835 -0.010634
											CHANNELS 3 Xrotation Yrotation Zrotation
											JOINT f_index.03.R
											{
												OFFSET -0.021371 -0.014881 -0.010866
												CHANNELS 3 Xrotation Yrotation Zrotation
												End Site
												{
													OFFSET -0.015584 -0.009883 -0.013422
												}
											}
										}
									}
									JOINT thumb.01.R
									{
										OFFSET 0.009113 -0.002381 -0.024211
										CHANNELS 6 Xposition Yposition Zposition Xrotation Yrotation Zrotation
										JOINT thumb.02.R
										{
											OFFSET -0.019694 -0.035097 -0.011088
											CHANNELS 3 Xrotation Yrotation Zrotation
											JOINT thumb.03.R
											{
												OFFSET -0.024867 -0.021762 -0.005168
												CHANNELS 3 Xrotation Yrotation Zrotation
												End Site
												{
													OFFSET -0.016120 -0.013036 -0.001565
												}
											}
										}
									}
								}
								JOINT palm.02.R
								{
									OFFSET -0.032828 -0.025095 0.012286
									CHANNELS 6 Xposition Yposition Zposition Yrotation Xrotation Zrotation
									JOINT f_middle.01.R
									{
										OFFSET -0.055721 -0.038472 0.008040
										CHANNELS 3 Xrotation Yrotation Zrotation
										JOINT f_middle.02.R
										{
											OFFSET -0.038101 -0.027593 -0.015557
											CHANNELS 3 Xrotation Yrotation Zrotation
											JOINT f_middle.03.R
											{
												OFFSET -0.021730 -0.016530 -0.017054
												CHANNELS 3 Xrotation Yrotation Zrotation
												End Site
												{
													OFFSET -0.014096 -0.010608 -0.014293
												}
											}
										}
									}
								}
								JOINT palm.03.R
								{
									OFFSET -0.039192 -0.011488 0.008390
									CHANNELS 6 Xposition Yposition Zposition Yrotation Xrotation Zrotation
									JOINT f_ring.01.R
									{
										OFFSET -0.061839 -0.031387 0.007876
										CHANNELS 3 Xrotation Yrotation Zrotation
										JOINT f_ring.02.R
										{
											OFFSET -0.033068 -0.023437 -0.019125
											CHANNELS 3 Xrotation Yrotation Zrotation
											JOINT f_ring.03.R
											{
												OFFSET -0.021371 -0.015393 -0.017822
												CHANNELS 3 Xrotation Yrotation Zrotation
												End Site
												{
													OFFSET -0.008654 -0.007321 -0.014684
												}
											}
										}
									}
								}
								JOINT palm.04.R
								{
									OFFSET -0.043421 0.002443 0.002845
									CHANNELS 6 Xposition Yposition Zposition Yrotation Xrotation Zrotation
									JOINT f_pinky.01.R
									{
										OFFSET -0.069983 -0.026169 0.003599
										CHANNELS 3 Xrotation Yrotation Zrotation
										JOINT f_pinky.02.R
										{
											OFFSET -0.018501 -0.012842 -0.016428
											CHANNELS 3 Xrotation Yrotation Zrotation
											JOINT f_pinky.03.R
											{
												OFFSET -0.013806 -0.009821 -0.014946
												CHANNELS 3 Xrotation Yrotation Zrotation
												End Site
												{
													OFFSET -0.007226 -0.006121 -0.011655
												}
											}
										}
									}
								}
							}
						}
					}
				}
			}
		}
	}
	JOINT pelvis.L
	{
		OFFSET 0.000000 0.000000 0.000000
		CHANNELS 6 Xposition Yposition Zposition Xrotation Yrotation Zrotation
		JOINT thigh.L
		{
			OFFSET 0.101675 0.001054 -0.000000
			CHANNELS 3 Xrotation Yrotation Zrotation
			JOINT shin.L
			{
				OFFSET 0.000000 -0.534800 0.041000
				CHANNELS 3 Xrotation Yrotation Zrotation
				JOINT foot.L
				{
					OFFSET 0.000000 -0.452000 -0.044800
					CHANNELS 3 Xrotation Yrotation Zrotation
					JOINT toe.L
					{
						OFFSET -0.000000 -0.068500 0.109600
						CHANNELS 3 Xrotation Yrotation Zrotation
						End Site
						{
							OFFSET -0.000000 0.000000 0.067200
						}
					}
				}
				JOINT heel.L
				{
					OFFSET 0.000000 -0.452000 -0.044800
					CHANNELS 3 Xrotation Yrotation Zrotation
					JOINT heel.02.L
					{
						OFFSET -0.038000 -0.085200 0.016200
						CHANNELS 6 Xposition Yposition Zposition Xrotation Yrotation Zrotation
						End Site
						{
							OFFSET 0.080000 -0.000000 0.000000
						}
					}
				}
			}
		}
	}
	JOINT pelvis.R
	{
		OFFSET 0.000000 0.000000 0.000000
		CHANNELS 6 Xposition Yposition Zposition Xrotation Yrotation Zrotation
		JOINT thigh.R
		{
			OFFSET -0.094325 0.001054 0.000000
			CHANNELS 3 Xrotation Yrotation Zrotation
			JOINT shin.R
			{
				OFFSET 0.000000 -0.534800 0.041000
				CHANNELS 3 Xrotation Yrotation Zrotation
				JOINT foot.R
				{
					OFFSET 0.000000 -0.452000 -0.044800
					CHANNELS 3 Xrotation Yrotation Zrotation
					JOINT toe.R
					{
						OFFSET -0.000000 -0.068500 0.109600
						CHANNELS 3 Xrotation Yrotation Zrotation
						End Site
						{
							OFFSET -0.000000 0.000000 0.067200
						}
					}
				}
				JOINT heel.R
				{
					OFFSET 0.000000 -0.452000 -0.044800
					CHANNELS 3 Xrotation Yrotation Zrotation
					JOINT heel.02.R
					{
						OFFSET 0.038000 -0.085200 0.016200
						CHANNELS 6 Xposition Yposition Zposition Xrotation Yrotation Zrotation
						End Site
						{
							OFFSET -0.080000 0.000000 -0.000000
						}
					}
				}
			}
		}
	}
}
MOTION
Frames: 4
Frame Time: 0.041667
0.000609 0.272856 -0.020857 48.914577 86.637767 -47.116913 -0.000000 0.000000 0.000000 -0.000000 0.000000 0.000000 -0.000000 0.000000 -0.000000 0.000000 0.000000 -0.000000 0.000924 0.155148 0.009274 3.730534 -0.003691 6.126494 0.019937 0.078966 0.057518 3.005468 3.618945 26.345877 0.177025 -0.020465 -0.095062 -11.295560 11.879150 -63.639577 -0.001176 -1.649098 -3.124365 -0.000000 0.000000 0.000001 0.021770 -0.038291 0.012954 -0.000001 0.000000 0.000003 -0.000004 -0.000000 0.000001 0.000001 0.000001 0.000005 0.000001 -0.000001 0.000001 -0.009090 -0.002348 -0.024223 -0.000003 -0.000003 0.000002 0.000000 0.000000 0.000003 -0.000002 0.000000 0.000001 0.032823 -0.025104 0.012281 -0.000001 -0.000000 0.000007 -0.000000 -0.000001 -0.000003 -0.000004 0.000002 -0.000000 -0.000003 0.000000 -0.000001 0.039230 -0.011402 0.008390 -0.000000 0.000001 0.000001 0.000001 0.000002 0.000005 0.000003 0.000003 0.000004 0.000002 -0.000004 0.000002 0.043417 0.002450 0.002889 -0.000000 -0.000000 0.000002 -0.000001 -0.000005 -0.000000 -0.000001 0.000001 0.000003 -0.000000 -0.000001 0.000001 -0.016662 0.078957 0.057696 0.758321 3.678889 -27.675471 -0.176972 -0.020537 -0.095144 -6.045258 -11.818195 65.252219 3.186556 -1.294910 7.924060 -0.000003 -0.000001 0.000004 -0.021773 -0.038278 0.012988 0.000001 0.000001 0.000000 0.000001 0.000002 -0.000003 -0.000000 -0.000000 -0.000001 -0.000001 0.000000 0.000001 0.009113 -0.002381 -0.024212 0.000002 -0.000003 0.000000 0.000001 -0.000001 -0.000005 0.000001 -0.000001 -0.000003 -0.032828 -0.025095 0.012286 0.000002 0.000002 -0.000006 -0.000002 0.000001 0.000002 -0.000003 0.000002 -0.000004 -0.000001 -0.000000 -0.000002 -0.039192 -0.011488 0.008390 0.000001 0.000003 -0.000002 -0.000002 0.000003 0.000000 -0.000002 0.000002 -0.000002 0.000001 -0.000001 -0.000002 -0.043421 0.002443 0.002845 0.000000 0.000002 -0.000001 0.000003 0.000003 -0.000002 -0.000004 -0.000004 -0.000003 0.000002 0.000000 0.000003 -0.000000 0.000000 -0.000000 -1.434178 -0.135387 0.722946 -1.474847 0.097497 1.658686 2.662468 -0.280274 2.831132 -0.000002 0.000000 0.000000 0.000000 -0.000000 -0.000000 -0.000002 0.000000 0.000001 -0.038000 -0.085200 0.016200 -0.000001 -0.000000 -0.000000 -0.000000 -0.000000 0.000000 -1.407316 -0.134770 1.957194 -0.107702 0.502774 6.210541 4.208991 -0.004990 0.050908 0.000000 -0.000000 0.000001 0.000005 0.000000 0.000001 -0.000002 0.000002 0.000000 0.038000 -0.085200 0.016200 -0.000001 -0.000000 -0.000001 
-0.000383 0.273977 -0.020567 74.120086 86.650560 -72.666157 -0.000000 0.000000 -0.000000 -0.000001 0.000000 -0.000000 -0.000000 -0.000000 0.000000 -0.000000 -0.000000 0.000000 0.000924 0.155147 0.009274 4.255364 -0.004879 6.503066 0.019937 0.078966 0.057518 2.847233 3.689261 26.576088 0.177024 -0.020465 -0.095062 -10.559040 11.785818 -63.014048 -0.822061 -2.772670 -3.751873 -0.000001 -0.000000 0.000003 0.021770 -0.038291 0.012954 0.000000 -0.000001 -0.000000 -0.000001 -0.000002 0.000001 0.000002 -0.000001 0.000001 -0.000000 0.000002 0.000002 -0.009090 -0.002348 -0.024223 0.000001 -0.000002 0.000003 0.000000 0.000000 -0.000006 -0.000000 0.000000 -0.000002 0.032823 -0.025104 0.012281 -0.000001 -0.000001 -0.000001 -0.000001 0.000001 -0.000003 -0.000005 0.000000 0.000007 0.000000 0.000000 -0.000001 0.039230 -0.011402 0.008390 0.000000 0.000001 0.000003 0.000002 -0.000000 -0.000004 0.000003 0.000005 0.000003 0.000001 -0.000004 0.000000 0.043417 0.002450 0.002889 -0.000000 0.000000 -0.000005 -0.000001 -0.000006 -0.000002 -0.000004 0.000003 0.000003 0.000000 -0.000003 -0.000005 -0.016662 0.078956 0.057696 -0.184257 3.955064 -28.114843 -0.176972 -0.020537 -0.095144 -5.189548 -11.680982 64.570983 2.268863 -0.132232 8.487853 0.000002 0.000002 -0.000000 -0.021773 -0.038278 0.012988 -0.000000 0.000001 -0.000002 -0.000001 0.000003 -0.000004 -0.000003 0.000003 -0.000011 -0.000000 0.000000 0.000001 0.009113 -0.002381 -0.024211 0.000001 -0.000001 0.000002 -0.000003 -0.000001 -0.000001 0.000002 -0.000000 0.000003 -0.032828 -0.025095 0.012286 0.000001 0.000001 -0.000001 0.000000 0.000003 0.000001 -0.000001 -0.000001 0.000001 -0.000001 0.000002 -0.000007 -0.039192 -0.011488 0.008390 0.000001 0.000001 -0.000000 -0.000004 0.000004 -0.000002 -0.000001 -0.000001 0.000002 -0.000007 0.000002 -0.000007 -0.043421 0.002443 0.002845 0.000001 0.000002 -0.000003 -0.000005 0.000000 0.000001 -0.000001 -0.000003 0.000003 -0.000003 0.000000 -0.000002 -0.000000 0.000000 0.000000 -1.430401 -0.170832 1.182316 -6.055696 0.135217 2.428460 8.273722 -0.227104 2.294128 0.000002 -0.000000 -0.000001 0.000001 -0.000000 -0.000000 -0.000003 0.000000 -0.000000 -0.038000 -0.085200 0.016200 0.000002 -0.000000 0.000001 -0.000000 0.000000 0.000000 -1.404643 -0.170037 2.416577 -1.282521 0.516056 6.297150 5.233284 -0.018257 0.184764 0.000005 -0.000001 0.000000 0.000002 0.000000 -0.000000 0.000005 -0.000001 -0.000000 0.038000 -0.085200 0.016200 0.000003 0.000000 0.000001 
-0.000567 0.272542 -0.021295 69.481937 85.483601 -68.526598 -0.000001 0.000000 -0.000000 -0.000000 0.000000 0.000000 0.000000 0.000000 -0.000000 0.000001 0.000000 -0.000000 0.000924 0.155148 0.009274 2.065545 -0.000601 6.376332 0.019937 0.078966 0.057518 2.225997 3.589462 26.719606 0.177025 -0.020465 -0.095062 -10.998450 11.799000 -62.679977 -0.891148 -2.833319 -3.295868 -0.000002 0.000001 -0.000001 0.021770 -0.038291 0.012954 0.000000 0.000002 -0.000002 -0.000002 -0.000001 0.000005 0.000000 0.000001 0.000008 -0.000001 0.000000 0.000003 -0.009090 -0.002348 -0.024224 -0.000001 0.000001 -0.000001 0.000001 0.000000 -0.000000 -0.000000 0.000001 -0.000002 0.032823 -0.025104 0.012281 -0.000002 -0.000001 0.000002 -0.000001 0.000007 -0.000007 -0.000001 -0.000006 0.000001 -0.000000 -0.000002 0.000002 0.039230 -0.011402 0.008390 -0.000001 -0.000001 0.000003 0.000001 -0.000000 0.000001 -0.000004 0.000007 -0.000001 0.000004 -0.000001 0.000005 0.043417 0.002450 0.002889 -0.000003 0.000001 -0.000007 0.000001 -0.000003 -0.000000 0.000001 0.000001 -0.000005 -0.000003 0.000005 0.000005 -0.016662 0.078957 0.057696 -0.049986 3.791140 -27.845771 -0.176972 -0.020537 -0.095144 -5.288653 -11.727362 64.567390 1.795137 0.370412 8.268549 -0.000000 0.000002 0.000003 -0.021773 -0.038278 0.012988 0.000001 -0.000001 -0.000002 -0.000001 0.000002 -0.000005 -0.000002 -0.000004 -0.000001 0.000002 -0.000005 0.000009 0.009114 -0.002381 -0.024212 0.000004 -0.000002 -0.000001 0.000001 -0.000002 -0.000001 0.000000 -0.000001 -0.000006 -0.032828 -0.025095 0.012286 0.000001 0.000000 0.000001 0.000001 0.000003 -0.000004 -0.000004 0.000002 -0.000004 0.000000 -0.000005 -0.000001 -0.039192 -0.011488 0.008390 0.000000 0.000001 0.000001 0.000001 0.000004 -0.000002 0.000004 -0.000003 0.000003 -0.000000 0.000002 -0.000003 -0.043421 0.002443 0.002845 0.000001 0.000001 0.000002 -0.000005 0.000004 -0.000004 0.000001 0.000001 0.000003 -0.000001 -0.000002 0.000003 -0.000000 0.000000 -0.000000 -1.441561 -0.152517 0.941667 -7.086058 0.044200 1.308980 9.056466 -0.161586 1.632705 0.000000 0.000000 -0.000000 -0.000001 -0.000000 -0.000000 0.000003 -0.000000 -0.000000 -0.038000 -0.085200 0.016200 -0.000002 -0.000000 0.000001 -0.000000 0.000000 0.000000 -1.415046 -0.151810 2.175936 -3.723157 0.546543 6.511446 6.484622 -0.010684 0.108372 -0.000003 0.000000 -0.000000 0.000005 -0.000000 0.000000 0.000003 0.000000 -0.000001 0.038000 -0.085200 0.016200 0.000000 -0.000000 -0.000000 
-0.001812 0.273418 -0.021075 56.015942 83.138394 -54.818115 -0.000001 -0.000000 0.000000 -0.000000 -0.000000 0.000000 0.000000 -0.000000 -0.000000 0.000002 -0.000000 -0.000000 0.000924 0.155148 0.009274 0.663809 0.002647 5.872157 0.019937 0.078966 0.057518 3.125228 3.633568 26.556085 0.177025 -0.020465 -0.095062 -11.221059 11.662762 -61.582536 -1.067042 -2.906894 -1.989527 -0.000002 -0.000001 0.000003 0.021770 -0.038291 0.012954 0.000004 -0.000001 0.000001 -0.000002 -0.000001 0.000001 0.000001 -0.000000 0.000008 -0.000001 0.000005 -0.000003 -0.009090 -0.002348 -0.024224 -0.000001 -0.000003 0.000001 0.000001 -0.000001 -0.000001 0.000000 0.000000 0.000001 0.032823 -0.025104 0.012281 0.000002 0.000000 0.000004 -0.000000 0.000002 -0.000007 -0.000003 0.000001 0.000003 -0.000001 -0.000002 -0.000000 0.039230 -0.011402 0.008390 0.000003 0.000001 0.000006 0.000002 0.000002 -0.000000 0.000003 0.000003 -0.000001 0.000000 -0.000004 0.000002 0.043417 0.002450 0.002889 0.000000 -0.000002 -0.000002 0.000000 -0.000002 -0.000004 0.000003 0.000003 -0.000000 -0.000001 0.000002 0.000004 -0.016662 0.078957 0.057696 1.310614 3.671714 -28.074179 -0.176972 -0.020537 -0.095144 -5.754784 -11.793479 63.584164 1.280853 0.783346 7.593875 0.000001 -0.000000 -0.000005 -0.021773 -0.038278 0.012988 0.000001 -0.000002 -0.000003 -0.000001 0.000004 -0.000006 -0.000003 -0.000000 -0.000006 0.000001 -0.000001 0.000004 0.009114 -0.002381 -0.024211 0.000002 -0.000003 -0.000001 0.000002 -0.000001 -0.000005 0.000001 -0.000000 -0.000008 -0.032828 -0.025095 0.012286 0.000003 0.000000 -0.000004 -0.000001 0.000003 0.000001 -0.000000 -0.000001 -0.000009 0.000002 0.000004 0.000002 -0.039192 -0.011488 0.008390 0.000001 0.000001 -0.000002 0.000003 0.000002 0.000000 0.000002 -0.000001 0.000002 0.000002 -0.000002 -0.000003 -0.043421 0.002443 0.002844 0.000002 0.000000 -0.000003 -0.000004 0.000004 0.000003 0.000000 0.000000 0.000002 -0.000001 0.000001 0.000004 -0.000000 0.000000 0.000000 -1.446725 -0.167162 1.128509 -11.016420 0.013032 1.137756 16.346094 -0.102134 1.032653 0.000002 0.000000 -0.000000 0.000001 -0.000001 -0.000000 -0.000002 0.000000 -0.000000 -0.038000 -0.085200 0.016200 -0.000002 -0.000000 0.000000 -0.000000 0.000000 0.000000 -1.420535 -0.166378 2.362770 -7.284046 0.547074 6.253737 10.468444 -0.065722 0.663704 0.000000 -0.000000 0.000000 -0.000001 0.000000 -0.000000 0.000002 0.000000 -0.000000 0.038000 -0.085200 0.016200 -0.000003 0.000001 -0.000000 
